<svg width="21" height="22" viewBox="0 0 21 22" fill="none" xmlns="http://www.w3.org/2000/svg">
<path d="M20.2529 0.00217176V10.7127C20.2529 13.1833 19.4691 15.4606 18.1499 17.2794C17.3045 18.4462 16.2376 19.4262 15.0168 20.1455C14.8999 20.215 14.7829 20.2802 14.6639 20.3454C13.2954 21.0799 11.7504 21.4971 10.1111 21.5058C10.0947 21.5058 10.0782 21.5058 10.0618 21.5058H9.85459C8.03263 21.5058 6.32762 20.9821 4.86267 20.0694C1.95327 18.255 0 14.9043 0 11.069V10.5062C0 6.66011 1.95122 3.29638 4.86267 1.46675C5.04527 1.35158 5.23198 1.24293 5.42074 1.1408C6.74823 0.423727 8.24602 0.0152107 9.83408 0C9.8628 0 9.89153 0 9.9182 0H20.2529V0.00217176Z" fill="#7E9ACF"/>
<path d="M10.111 0.00217176V21.5058C10.0946 21.5058 10.0782 21.5058 10.0618 21.5058H9.85457C8.03261 21.5058 6.3276 20.9821 4.86264 20.0694V1.46675C5.04525 1.35158 5.23196 1.24293 5.42072 1.1408C6.74821 0.423727 8.24599 0.0152107 9.83405 0C9.86278 0 9.8915 0 9.91818 0H10.111V0.00217176Z" fill="#78C7CE"/>
<path d="M18.1498 17.2816C17.3045 18.4484 16.2375 19.4284 15.0168 20.1477C14.8998 20.2172 14.7829 20.2824 14.6638 20.3476L10.111 10.8865L5.42273 1.143C6.75022 0.425924 8.248 0.017408 9.83606 0.00219727L10.111 0.571514L15.0168 10.767L18.1498 17.2816Z" fill="#84CEBF"/>
<path d="M20.2534 0.00217176V10.7127C20.2534 13.1833 19.4696 15.4606 18.1503 17.2794C17.305 18.4462 16.2381 19.4262 15.0173 20.1455V0H20.2534V0.00217176Z" fill="#78C7CE"/>
</svg>
